# xmcd
#
# Track frame offsets: 
#        150
#        12770
#        27557
#        42782
#        57240
#        67457
#        82452
#        99125
#        111862
#        128902
#        139832
#        154575
#        173235
#
# Disc length: 2483 seconds
#
# Revision: 2
# Processed by: cddbd v1.5.2PL0 Copyright (c) Steve Scherf et al.
# Submitted via: ExactAudioCopyFreeDBPlugin 1.0
#
DISCID=b409b10d
DTITLE=Rick Moranis - Agoraphobic Cowboy, The
DYEAR=2005
DGENRE=Alternative
TTITLE0=Nine More Gallons
TTITLE1=It's the Champagne Talkin'
TTITLE2=Give Me the News
TTITLE3=Press Pound
TTITLE4=I Ain't Goin' Nowhere
TTITLE5=Wheaties Box
TTITLE6=Three Days Rest
TTITLE7=Oh So Bucco
TTITLE8=Five Star Motels
TTITLE9=Mean Old Man
TTITLE10=Four More Beers
TTITLE11=SOS
TTITLE12=Bonus Track
EXTD=
EXTT0=
EXTT1=
EXTT2=
EXTT3=
EXTT4=
EXTT5=
EXTT6=
EXTT7=
EXTT8=
EXTT9=
EXTT10=
EXTT11=
EXTT12=
PLAYORDER=
